<svg id="Capa_1" enable-background="new 0 0 497 497" height="512" viewBox="0 0 497 497" width="512" xmlns="http://www.w3.org/2000/svg"><g><circle cx="248.5" cy="248.5" fill="#ffe7b5" r="188.5"/><path d="m248.5 90v317c87.537 0 158.5-70.963 158.5-158.5s-70.963-158.5-158.5-158.5z" fill="#ff336d"/><path d="m377 248.5c0-87.537-57.531-158.5-128.5-158.5-87.537 0-158.5 70.963-158.5 158.5s70.963 158.5 158.5 158.5c70.969 0 128.5-70.963 128.5-158.5z" fill="#ff545a"/><circle cx="248.5" cy="248.5" fill="#ffe7b5" r="90"/><path d="m467 188.5-90 60 90 60h22.5c4.142 0 7.5-3.358 7.5-7.5v-105c0-4.142-3.358-7.5-7.5-7.5z" fill="#ff545a"/><path d="m467 308.5h-459.5c-4.142 0-7.5-3.358-7.5-7.5v-105c0-4.142 3.358-7.5 7.5-7.5h459.5z" fill="#ff7647"/><g fill="#fff"><path d="m204.973 270.726h-17.551v-14.726h15.704c4.142 0 7.5-3.358 7.5-7.5s-3.358-7.5-7.5-7.5h-15.704v-14.726h17.551c4.142 0 7.5-3.358 7.5-7.5s-3.358-7.5-7.5-7.5h-25.051c-4.142 0-7.5 3.358-7.5 7.5v59.452c0 4.142 3.358 7.5 7.5 7.5h25.051c4.142 0 7.5-3.358 7.5-7.5s-3.358-7.5-7.5-7.5z"/><path d="m467 270.726h-17.551v-14.726h15.704c4.142 0 7.5-3.358 7.5-7.5s-3.358-7.5-7.5-7.5h-15.704v-14.726h17.551c4.142 0 7.5-3.358 7.5-7.5s-3.358-7.5-7.5-7.5h-25.051c-4.142 0-7.5 3.358-7.5 7.5v59.452c0 4.142 3.358 7.5 7.5 7.5h25.051c4.142 0 7.5-3.358 7.5-7.5s-3.358-7.5-7.5-7.5z"/><path d="m300.412 285.113c-1.984 0-3.887-.786-5.293-2.187-1.413-1.408-2.207-3.319-2.207-5.313v-58.226c0-4.142 3.358-7.5 7.5-7.5h16.491c18.55 0 31.013 14.713 31.013 36.613 0 20.833-12.785 36.176-30.4 36.483-4.699.082-16.573.128-17.104.13zm7.5-58.226v43.187c3.435-.021 7.205-.051 9.342-.089 10.819-.188 15.662-10.927 15.662-21.485 0-3.609-.772-21.613-16.013-21.613z"/><path d="m131.049 286c-3.742 0-7.09-2.361-8.343-5.891l-20.532-59.149c-1.358-3.913.713-8.187 4.626-9.545 3.912-1.357 8.187.713 9.545 4.626l14.577 41.996 13.883-41.791c1.306-3.93 5.549-6.061 9.482-4.753 3.931 1.306 6.059 5.551 4.753 9.482l-19.591 58.971c-1.228 3.614-4.573 6.028-8.339 6.054-.02 0-.041 0-.061 0z"/><path d="m389.265 286c-5.558-.008-10.634-1.469-15.132-4.343-8.543-5.458-12.875-12.817-12.875-21.871v-41.286c0-4.142 3.358-7.5 7.5-7.5s7.5 3.358 7.5 7.5v41.287c0 3.258 1.012 6.075 5.951 9.23 2.083 1.331 4.383 1.979 7.032 1.983 2.44 0 4.568-.48 6.527-1.467 6.365-3.206 7.181-6.916 7.181-9.79v-41.243c0-4.142 3.358-7.5 7.5-7.5s7.5 3.358 7.5 7.5v41.243c0 7.032-2.678 16.763-15.434 23.187-4.044 2.037-8.503 3.07-13.25 3.07z"/><path d="m259.794 256.219c9.888-2.849 17.118-11.687 17.118-22.126 0-12.734-10.755-23.093-23.976-23.093h-15.954c-4.142 0-7.5 3.357-7.5 7.499l-.01 60c0 4.142 3.356 7.5 7.499 7.501 4.143 0 7.5-3.357 7.501-7.499l.003-16.982 19.306 21.936c2.736 3.109 7.476 3.413 10.585.675 3.109-2.736 3.412-7.476.675-10.585zm-15.313-30.219h8.455c4.865 0 8.976 3.706 8.976 8.093s-4.11 8.093-8.976 8.093c-1.975 0-5.335.014-8.458.029z"/><path d="m60 286c-20.678 0-37.5-16.822-37.5-37.5s16.822-37.5 37.5-37.5 37.5 16.822 37.5 37.5-16.822 37.5-37.5 37.5zm0-60c-12.407 0-22.5 10.093-22.5 22.5s10.093 22.5 22.5 22.5 22.5-10.093 22.5-22.5-10.093-22.5-22.5-22.5z"/></g></g></svg>