<svg id="Capa_1" enable-background="new 0 0 497 497" height="512" viewBox="0 0 497 497" width="512" xmlns="http://www.w3.org/2000/svg"><g><path d="m40.607 435.18-31.82 53.033c11.716 11.716 30.711 11.716 42.426 0l10.607-10.607z" fill="#95b0ed"/><path d="m8.787 445.787c-11.716 11.716-11.716 30.711 0 42.426l42.426-42.426-31.82-10.607z" fill="#acd2f6"/><path d="m143.811 285.689h30v105h-30z" fill="#7d8fe5" transform="matrix(.707 .707 -.707 .707 285.65 -13.243)"/><path d="m121.688 354.099-81.081 102.294 21.213 21.214 81.081-81.082z" fill="#4e4cd3"/><path d="m100.475 354.099-81.082 81.081 21.214 21.213 91.687-91.687z" fill="#666ddc"/><path d="m153.508 364.706-21.213-21.213-10.607 31.82 21.213 21.213 10.607-10.607c5.857-5.858 5.857-15.356 0-21.213z" fill="#95b0ed"/><path d="m132.294 343.492c-5.858-5.858-15.355-5.858-21.213 0l-10.607 10.607 21.213 21.213 10.607-10.607c5.858-5.857 5.858-15.355 0-21.213z" fill="#acd2f6"/><circle cx="302" cy="195" fill="#acd2f6" r="195"/><path d="m302 30v330c91.127 0 165-73.873 165-165s-73.873-165-165-165z" fill="#c4f3ff"/><path d="m437 195c0-91.127-60.442-165-135-165-91.127 0-165 73.873-165 165s73.873 165 165 165c74.558 0 135-73.873 135-165z" fill="#fff"/><circle cx="302" cy="195" fill="#95b0ed" r="135"/><path d="m302 90v210c57.99 0 105-47.01 105-105s-47.01-105-105-105z" fill="#c4f3ff"/><path d="m377 195c0-57.99-33.579-105-75-105-57.99 0-105 47.01-105 105s47.01 105 105 105c41.421 0 75-47.01 75-105z" fill="#fff"/><g fill="#4e4cd3"><circle cx="302" cy="270" r="7.5"/><circle cx="339.5" cy="259.952" r="7.5"/><circle cx="264.5" cy="130.048" r="7.5"/><circle cx="366.952" cy="232.5" r="7.5"/><circle cx="237.048" cy="157.5" r="7.5"/><circle cx="227" cy="195" r="7.5"/><circle cx="366.952" cy="157.5" r="7.5"/><circle cx="237.048" cy="232.5" r="7.5"/><circle cx="339.5" cy="130.048" r="7.5"/><circle cx="264.5" cy="259.952" r="7.5"/></g><path d="m377 202.5h-75c-4.143 0-7.5-3.358-7.5-7.5v-75c0-4.142 3.357-7.5 7.5-7.5s7.5 3.358 7.5 7.5v67.5h67.5c4.143 0 7.5 3.358 7.5 7.5s-3.357 7.5-7.5 7.5z" fill="#4a36b5"/></g></svg>