<svg id="Capa_1" enable-background="new 0 0 497 497" height="512" viewBox="0 0 497 497" width="512" xmlns="http://www.w3.org/2000/svg"><g><circle cx="248.5" cy="188.5" fill="#666ddc" r="188.5"/><path d="m248.5 30v317c87.537 0 158.5-70.963 158.5-158.5s-70.963-158.5-158.5-158.5z" fill="#14cfff"/><path d="m377 188.5c0-87.537-57.531-158.5-128.5-158.5-87.537 0-158.5 70.963-158.5 158.5s70.963 158.5 158.5 158.5c70.969 0 128.5-70.963 128.5-158.5z" fill="#6ce1ff"/><path d="m248.5 90v197c54.4 0 98.5-44.1 98.5-98.5s-44.1-98.5-98.5-98.5z" fill="#ff545a"/><path d="m317 188.5c0-54.4-30.669-98.5-68.5-98.5-54.4 0-98.5 44.1-98.5 98.5s44.1 98.5 98.5 98.5c37.831 0 68.5-44.1 68.5-98.5z" fill="#ff7647"/><path d="m248.5 150v77c21.263 0 38.5-17.237 38.5-38.5s-17.237-38.5-38.5-38.5z" fill="#ffe7b5"/><path d="m257 188.5c0-21.263-3.806-38.5-8.5-38.5-21.263 0-38.5 17.237-38.5 38.5s17.237 38.5 38.5 38.5c4.694 0 8.5-17.237 8.5-38.5z" fill="#fff"/><path d="m332 407h-45l-30 15 30 15h45z" fill="#666ddc"/><path d="m165 407h122v30h-122z" fill="#7d8fe5"/><path d="m332 467h-45l-30 15 30 15h30z" fill="#666ddc"/><path d="m287 467h-122l15 30h107z" fill="#7d8fe5"/><g fill="#95b0ed"><path d="m331.275 287.017c-8.068.38-14.275 7.33-14.275 15.407v194.576h22.5c4.142 0 7.5-3.358 7.5-7.5v-187.5c0-8.525-7.111-15.389-15.725-14.983z"/><path d="m164.275 287.017c-8.068.38-14.275 7.33-14.275 15.407v187.076c0 4.142 3.358 7.5 7.5 7.5h22.5v-195c0-8.525-7.111-15.389-15.725-14.983z"/></g></g></svg>