<svg id="Capa_1" enable-background="new 0 0 497 497" height="512" viewBox="0 0 497 497" width="512" xmlns="http://www.w3.org/2000/svg"><g><path d="m203.5 329.99 45 132.909 64.044 33.247c4.993 2.592 10.956-1.031 10.956-6.656v-159.5z" fill="#4e4cd3"/><path d="m173.5 329.99v159.5c0 5.625 5.963 9.248 10.956 6.656l64.044-33.247v-132.909z" fill="#666ddc"/><path d="m459.5 211c0-20.076-8.774-38.094-22.685-50.459 5.865-17.663 4.454-37.655-5.584-55.041s-26.646-28.604-44.875-32.356c-3.752-18.23-14.97-34.837-32.356-44.875s-37.378-11.449-55.041-5.584c-12.365-13.911-30.383-22.685-50.459-22.685s-38.094 8.774-50.459 22.685c-17.664-5.865-37.655-4.454-55.041 5.583-17.386 10.038-28.604 26.646-32.356 44.875-18.23 3.752-34.837 14.97-44.875 32.356s-11.449 37.378-5.584 55.041c-13.911 12.366-22.685 30.384-22.685 50.46s8.774 38.094 22.685 50.459c-5.865 17.664-4.454 37.655 5.584 55.041s26.645 28.604 44.875 32.356c3.752 18.23 14.97 34.837 32.356 44.875s37.378 11.449 55.041 5.584c12.365 13.911 30.383 22.685 50.459 22.685s38.095-8.774 50.459-22.685c17.664 5.865 37.655 4.454 55.041-5.584s28.604-26.646 32.356-44.875c18.23-3.752 34.837-14.97 44.875-32.356s11.449-37.378 5.584-55.041c13.911-12.364 22.685-30.383 22.685-50.459z" fill="#ff336d"/><path d="m248.5 52.5v317c87.537 0 158.5-70.963 158.5-158.5s-70.963-158.5-158.5-158.5z" fill="#ff545a"/><path d="m377 211c0-87.537-57.531-158.5-128.5-158.5-87.537 0-158.5 70.963-158.5 158.5s70.963 158.5 158.5 158.5c70.969 0 128.5-70.963 128.5-158.5z" fill="#ff7647"/><path d="m248.5 112.5v197c54.4 0 98.5-44.1 98.5-98.5s-44.1-98.5-98.5-98.5z" fill="#ff336d"/><path d="m317 211c0-54.4-30.669-98.5-68.5-98.5-54.4 0-98.5 44.1-98.5 98.5s44.1 98.5 98.5 98.5c37.831 0 68.5-44.1 68.5-98.5z" fill="#ff545a"/></g></svg>