<svg id="Capa_1" enable-background="new 0 0 497 497" height="512" viewBox="0 0 497 497" width="512" xmlns="http://www.w3.org/2000/svg"><g><path d="m248.5 0c-11.078 0-21.985.728-32.679 2.134-2.921.384-5.357 2.418-6.227 5.233l-14.594 47.253h107l-14.594-47.254c-.869-2.815-3.306-4.849-6.227-5.233-10.694-1.405-21.601-2.133-32.679-2.133z" fill="#95b0ed"/><path d="m209.594 489.634c.869 2.815 3.306 4.849 6.227 5.233 10.694 1.405 21.601 2.133 32.679 2.133s21.985-.728 32.679-2.134c2.921-.384 5.357-2.418 6.227-5.233l14.594-47.253h-107z" fill="#7d8fe5"/><path d="m72.784 72.784c-7.833 7.833-15.031 16.06-21.599 24.616-1.794 2.337-2.078 5.498-.703 8.103l23.094 43.733 75.66-75.66-43.733-23.094c-2.605-1.376-5.767-1.091-8.103.703-8.556 6.568-16.783 13.766-24.616 21.599z" fill="#95b0ed"/><path d="m347.763 423.424 43.733 23.094c2.605 1.375 5.767 1.091 8.103-.703 8.556-6.568 16.783-13.766 24.616-21.599s15.031-16.06 21.599-24.616c1.794-2.337 2.078-5.498.703-8.103l-23.094-43.733z" fill="#7d8fe5"/><path d="m54.62 195-47.254 14.594c-2.815.869-4.849 3.306-5.233 6.227-1.405 10.694-2.133 21.601-2.133 32.679s.728 21.985 2.134 32.679c.384 2.921 2.418 5.357 5.233 6.227l47.253 14.594z" fill="#95b0ed"/><path d="m489.634 209.594-47.254-14.594v107l47.254-14.594c2.815-.869 4.849-3.306 5.233-6.227 1.405-10.694 2.133-21.601 2.133-32.679s-.728-21.985-2.134-32.679c-.383-2.92-2.418-5.357-5.232-6.227z" fill="#7d8fe5"/><path d="m50.482 391.497c-1.376 2.605-1.091 5.767.703 8.103 6.568 8.556 13.766 16.783 21.599 24.616s16.06 15.031 24.616 21.599c2.337 1.794 5.498 2.078 8.103.703l43.733-23.094-75.66-75.66z" fill="#95b0ed"/><path d="m446.518 105.503c1.376-2.605 1.091-5.767-.703-8.103-6.568-8.556-13.766-16.783-21.599-24.616s-16.06-15.031-24.616-21.599c-2.337-1.794-5.498-2.078-8.103-.703l-43.733 23.094 75.66 75.66z" fill="#7d8fe5"/><circle cx="248.5" cy="248.5" fill="#95b0ed" r="218.5"/><circle cx="248.5" cy="248.5" fill="#7d8fe5" r="188.5"/><path d="m248.5 90 47.5 309.755c64.33-20.182 111-80.267 111-151.255 0-87.537-70.963-158.5-158.5-158.5z" fill="#ffe7b5"/><path d="m377 248.5c0-87.537-57.531-158.5-128.5-158.5-87.537 0-158.5 70.963-158.5 158.5 0 70.988 46.67 131.073 111 151.255h95c46.944-20.182 81-80.267 81-151.255z" fill="#fff"/><path d="m266 406.038c10.331-1.136 20.364-3.26 30-6.283v-170.255l-75-30z" fill="#ff336d"/><path d="m168.5 229.5h32.5v170.255c14.997 4.705 30.951 7.245 47.5 7.245 5.915 0 11.753-.33 17.5-.962v-176.538h62.5l-80-79.5z" fill="#ff545a"/></g></svg>