<svg id="Capa_1" enable-background="new 0 0 497 497" height="512" viewBox="0 0 497 497" width="512" xmlns="http://www.w3.org/2000/svg"><g><path d="m135.667 165h-30l30 152.511c0 8.28 6.71 14.5 15 14.5 8.28 0 15-6.22 15-14.5l30-69.005-30-53.505c0-16.501-13.5-30.001-30-30.001z" fill="#ff336d"/><path d="m30 165h30l-30 152.011c0 8.28-6.72 15-15 15s-15-6.72-15-15v-122.011c0-16.5 13.5-30 30-30z" fill="#ff7647"/><path d="m135.667 195c0-16.5-13.5-30-30-30h-45.667c-16.5 0-30 13.5-30 30v268.083c0 10.448 8.469 18.917 18.917 18.917 10.447 0 18.917-8.469 18.917-18.916v-146.073h30v146.073c0 10.447 8.469 18.916 18.917 18.916 10.447 0 18.916-8.469 18.916-18.916z" fill="#ff545a"/><path d="m301.333 165h-30l30 152.511c0 8.28 6.71 14.5 15 14.5 8.28 0 15-6.22 15-14.5l30-69.005-30-53.505c0-16.501-13.5-30.001-30-30.001z" fill="#ffb44e"/><path d="m195.667 165h30l-30 152.011c0 8.28-6.72 15-15 15s-15-6.72-15-15v-122.011c0-16.5 13.5-30 30-30z" fill="#ffe7b5"/><path d="m301.333 195c0-16.5-13.5-30-30-30h-45.667c-16.5 0-30 13.5-30 30v268.083c0 10.447 8.469 18.916 18.917 18.916 10.447 0 18.917-8.469 18.917-18.916v-146.072h30v146.073c0 10.447 8.469 18.916 18.917 18.916 10.447 0 18.916-8.469 18.916-18.916z" fill="#ffd06a"/><path d="m467 165h-30l30 152.511c0 8.28 6.71 14.5 15 14.5 8.28 0 15-6.22 15-14.5v-122.511c0-16.5-13.5-30-30-30z" fill="#4e4cd3"/><path d="m361.333 165h30l-30 152.011c0 8.28-6.72 15-15 15s-15-6.72-15-15v-122.011c0-16.5 13.5-30 30-30z" fill="#7d8fe5"/><path d="m467 195c0-16.5-13.5-30-30-30h-45.667c-16.5 0-30 13.5-30 30v268.083c0 10.447 8.469 18.916 18.917 18.916 10.447 0 18.917-8.469 18.917-18.916v-146.072h30v146.073c0 10.447 8.469 18.916 18.917 18.916 10.447 0 18.916-8.469 18.916-18.916z" fill="#666ddc"/><path d="m82.504 15v120c33.137 0 60-26.863 60-60s-26.863-60-60-60z" fill="#acd2f6"/><path d="m112.504 75c0-33.137-13.431-60-30-60-33.137 0-60 26.863-60 60s26.863 60 60 60c16.569 0 30-26.863 30-60z" fill="#c4f3ff"/><path d="m248.5 15v120c33.137 0 60-26.863 60-60s-26.863-60-60-60z" fill="#acd2f6"/><path d="m278.5 75c0-33.137-13.431-60-30-60-33.137 0-60 26.863-60 60s26.863 60 60 60c16.569 0 30-26.863 30-60z" fill="#c4f3ff"/><path d="m413.838 15v120c33.137 0 60-26.863 60-60s-26.863-60-60-60z" fill="#acd2f6"/><path d="m443.838 75c0-33.137-13.431-60-30-60-33.137 0-60 26.863-60 60s26.863 60 60 60c16.568 0 30-26.863 30-60z" fill="#c4f3ff"/><g fill="#4a36b5"><path d="m112.504 82.5h-30c-4.142 0-7.5-3.358-7.5-7.5v-30c0-4.142 3.358-7.5 7.5-7.5s7.5 3.358 7.5 7.5v22.5h22.5c4.142 0 7.5 3.358 7.5 7.5s-3.358 7.5-7.5 7.5z"/><path d="m278.5 82.5h-30c-4.142 0-7.5-3.358-7.5-7.5v-30c0-4.142 3.358-7.5 7.5-7.5s7.5 3.358 7.5 7.5v22.5h22.5c4.142 0 7.5 3.358 7.5 7.5s-3.358 7.5-7.5 7.5z"/><path d="m443.838 82.5h-30c-4.142 0-7.5-3.358-7.5-7.5v-30c0-4.142 3.358-7.5 7.5-7.5s7.5 3.358 7.5 7.5v22.5h22.5c4.142 0 7.5 3.358 7.5 7.5s-3.358 7.5-7.5 7.5z"/></g></g></svg>