<svg id="Capa_1" enable-background="new 0 0 497 497" height="512" viewBox="0 0 497 497" width="512" xmlns="http://www.w3.org/2000/svg"><g><path d="m30 225h30l-30 122.5c0 8.28-6.71 14.5-15 14.5-8.28 0-15-6.22-15-14.5v-92.5c0-16.5 13.5-30 30-30z" fill="#acd2f6"/><path d="m135.667 225h-30l30 122.5c0 8.28 6.71 14.5 15 14.5 8.28 0 15-6.22 15-14.5v-92.5c0-16.5-13.5-30-30-30z" fill="#7d8fe5"/><path d="m135.667 255c0-16.5-13.5-30-30-30h-45.667c-16.5 0-30 13.5-30 30v193.083c0 10.448 8.469 18.917 18.917 18.917 10.447 0 18.917-8.469 18.917-18.916v-100.584h30v100.584c0 10.447 8.469 18.916 18.917 18.916 10.447 0 18.916-8.469 18.916-18.916z" fill="#95b0ed"/><path d="m225.667 150h30l-30 152c0 8.28-6.72 15-15 15s-15-6.72-15-15v-122c0-16.5 13.5-30 30-30z" fill="#c4f3ff"/><path d="m331.333 302.5 30-152.5h-105.666c-16.5 0-30 13.5-30 30v268.083c0 10.447 8.469 18.916 18.917 18.916 10.447 0 18.917-8.469 18.917-18.916v-145.583h30v145.584c0 10.447 8.469 18.916 18.917 18.916 10.447 0 18.916-8.469 18.916-18.916z" fill="#6ce1ff"/><path d="m467 150h-30l30 152.5c0 8.28 6.71 14.5 15 14.5 8.28 0 15-6.22 15-14.5v-122.5c0-16.5-13.5-30-30-30z" fill="#4e4cd3"/><path d="m361.333 150h30l-30 152c0 8.28-6.72 15-15 15s-15-6.72-15-15v-122c0-16.5 13.5-30 30-30z" fill="#7d8fe5"/><path d="m467 180c0-16.5-13.5-30-30-30h-45.667c-16.5 0-30 13.5-30 30v268.083c0 10.447 8.469 18.916 18.917 18.916 10.447 0 18.917-8.469 18.917-18.916v-145.583h30v145.584c0 10.447 8.469 18.916 18.917 18.916 10.447 0 18.916-8.469 18.916-18.916z" fill="#666ddc"/><path d="m434.984 30c-3.113 0-6.11.495-8.922 1.405l-11.895 88.595c4.506 0 8.538-1.997 11.288-5.143l31.441-36.023c4.523-5.181 7.272-11.974 7.272-19.419-.001-16.245-13.067-29.415-29.184-29.415z" fill="#4e4cd3"/><path d="m418.682 114.857 12.576-36.023c1.809-5.181 2.909-11.974 2.909-19.419 0-13.109-3.404-24.21-8.105-28.011-4.554 1.474-8.622 4.043-11.895 7.402-5.295-5.432-12.664-8.806-20.817-8.806-16.117 0-29.183 13.17-29.183 29.416 0 7.444 2.749 14.237 7.272 19.418l31.441 36.023c2.75 3.146 6.781 5.143 11.288 5.143 1.801 0 3.414-1.997 4.514-5.143z" fill="#666ddc"/><path d="m299.317 30c-3.113 0-6.11.495-8.922 1.405l-11.895 88.595c4.506 0 8.538-1.997 11.288-5.143l31.441-36.023c4.523-5.181 7.272-11.974 7.272-19.419-.001-16.245-13.067-29.415-29.184-29.415z" fill="#14cfff"/><path d="m283.015 114.857 12.576-36.023c1.809-5.181 2.909-11.974 2.909-19.419 0-13.109-3.404-24.21-8.105-28.011-4.554 1.474-8.622 4.043-11.895 7.402-5.295-5.432-12.664-8.806-20.817-8.806-16.117 0-29.183 13.17-29.183 29.416 0 7.444 2.749 14.237 7.272 19.418l31.441 36.023c2.75 3.146 6.781 5.143 11.288 5.143 1.801 0 3.414-1.997 4.514-5.143z" fill="#6ce1ff"/><path d="m103.65 105c-3.113 0-6.11.495-8.922 1.405l-11.895 88.595c4.506 0 8.538-1.997 11.288-5.143l31.441-36.023c4.523-5.181 7.272-11.974 7.272-19.419-.001-16.245-13.066-29.415-29.184-29.415z" fill="#7d8fe5"/><path d="m87.348 189.857 12.576-36.023c1.809-5.181 2.909-11.974 2.909-19.419 0-13.109-3.404-24.21-8.105-28.011-4.554 1.474-8.622 4.043-11.895 7.402-5.295-5.432-12.663-8.806-20.817-8.806-16.117 0-29.183 13.17-29.183 29.416 0 7.444 2.749 14.237 7.272 19.418l31.441 36.023c2.75 3.146 6.781 5.143 11.288 5.143 1.802 0 3.414-1.997 4.514-5.143z" fill="#95b0ed"/></g></svg>