<svg id="Capa_1" enable-background="new 0 0 493.376 493.376" height="512" viewBox="0 0 493.376 493.376" width="512" xmlns="http://www.w3.org/2000/svg"><g><path d="m443.039 133.334-21.213-21.213-172.398 112.47 63.64 63.64z" fill="#ff545a"/><path d="m360.042 50.337-154.896 129.972 86.709 86.709 129.971-154.897z" fill="#ff7647"/><path d="m216.68 297.909-21.213-21.213-42.426 42.426-10.607 31.82 31.82-10.606z" fill="#acd2f6"/><path d="m153.041 319.122-141.876 141.876c-7.036 7.036-10.805 15.945-11.158 24.525-.182 4.413 3.433 8.028 7.846 7.846 8.58-.353 17.49-4.123 24.525-11.158l141.876-141.876z" fill="#c4f3ff"/><path d="m301.533 425.188 15.734 15.734c3.046 3.046 8.057 2.933 10.899-.305 41.367-47.135 39.561-118.941-5.42-163.922l-21.213-21.213z" fill="#ff336d"/><path d="" fill="#ffd06a"/><path d="m301.533 255.483-84.853-84.853c-44.98-44.98-116.786-46.787-163.921-5.42-3.238 2.842-3.351 7.853-.305 10.899l249.079 249.079c46.863-46.862 46.863-122.842 0-169.705z" fill="#ff545a"/><path d="m475.787 123.656h-63.64l21.213 21.213c15.43 15.43 39.277 17.312 56.761 5.647 3.897-2.6 4.357-8.169 1.044-11.481z" fill="#ff336d"/><path d="m475.787 123.656-121.445-121.445c-3.313-3.313-8.881-2.853-11.481 1.044-11.665 17.483-9.783 41.331 5.647 56.761l63.64 63.64c17.573 17.573 46.065 17.573 63.639 0z" fill="#ff545a"/></g></svg>