<svg id="Capa_1" enable-background="new 0 0 497 497" height="512" viewBox="0 0 497 497" width="512" xmlns="http://www.w3.org/2000/svg"><g><path d="m481.636 497h-22.5l-60-218.5 60-218.5h22.5c4.142 0 7.5 3.358 7.5 7.5v422c0 4.142-3.358 7.5-7.5 7.5z" fill="#666ddc"/><path d="m459.136 497h-309.5c-4.142 0-7.5-3.358-7.5-7.5v-157.5l317 135z" fill="#7d8fe5"/><path d="m459.136 467h-30l-60-218.5 60-218.5h22.5c4.142 0 7.5 3.358 7.5 7.5z" fill="#ff336d"/><path d="m429.136 467h-309.5c-4.142 0-7.5-3.358-7.5-7.5v-127.5h317z" fill="#ff545a"/><path d="m309.136 202-212 130h-81.749c-4.685 0-8.297 4.263-7.38 8.857 4.114 20.611 22.308 36.143 44.129 36.143h302z" fill="#ffb44e"/><path d="m309.136 202v130c0 24.853 20.147 45 45 45h30v-175z" fill="#ff9733"/><path d="m399.136 0-30 374.429c4.865 1.72 10.109 2.637 15.579 2.567 24.755-.314 44.421-21.018 44.421-45.775v-323.721c0-4.142-3.358-7.5-7.5-7.5z" fill="#ffb44e"/><path d="m97.136 7.5v324.5h242c0 19.592 12.524 36.25 30 42.429 17.476-6.179 30-22.837 30-42.429v-332h-294.5c-4.142 0-7.5 3.358-7.5 7.5z" fill="#ffd06a"/><g fill="#4e4cd3"><circle cx="263.136" cy="257" r="15"/><path d="m263.136 60c-8.284 0-15 6.716-15 15v122c0 8.284 6.716 15 15 15s15-6.716 15-15v-122c0-8.284-6.716-15-15-15z"/></g></g></svg>