<svg id="Capa_1" enable-background="new 0 0 497 497" height="512" viewBox="0 0 497 497" width="512" xmlns="http://www.w3.org/2000/svg"><g><path d="m248.5 0s97.5 429.938 97.5 429.938c76.006-36.403 128.5-114.038 128.5-203.938 0-124.816-101.183-226-226-226z" fill="#7d8fe5"/><path d="m444.5 226c0-124.816-87.752-226-196-226-124.816 0-226 101.184-226 226 0 89.9 52.494 167.535 128.5 203.938v14.562c0 12.426 10.073 22.5 22.5 22.5 11.974 0 21.76-9.355 22.456-21.154 9.784 2.33 19.812 4.03 30.044 5.041v23.613c0 12.426 10.073 22.5 22.5 22.5s22.5-10.074 22.5-22.5v-23.613c10.231-1.011 20.259-2.711 30.044-5.041.696 11.799 10.482 21.154 22.456 21.154 12.427 0 22.5-10.074 22.5-22.5v-14.562c58.261-36.403 98.5-114.038 98.5-203.938z" fill="#95b0ed"/><path d="m248.5 60 21.658 330.594c81.445-10.613 144.342-80.256 144.342-164.594 0-91.679-74.321-166-166-166z" fill="#c4f3ff"/><path d="m248.5 60c-91.679 0-166 74.321-166 166 0 84.338 62.897 153.981 144.342 164.594 2.658 9.464 11.344 16.406 21.658 16.406s19-6.942 21.658-16.406c64.517-10.613 114.342-80.256 114.342-164.594 0-91.679-60.889-166-136-166z" fill="#fff"/><path d="m112.5 218.5c-4.142 0-7.5 3.358-7.5 7.5s3.358 7.5 7.5 7.5h136v-15z" fill="#4e4cd3"/><path d="m233.5 226v121c0 8.284 6.716 15 15 15s15-6.716 15-15v-121z" fill="#7d8fe5"/><path d="m248.5 241h91c8.284 0 15-6.716 15-15s-6.716-15-15-15h-91z" fill="#666ddc"/><circle cx="248.5" cy="226" fill="#95b0ed" r="30"/><circle cx="248.5" cy="226" fill="#4e4cd3" r="7.5"/><g fill="#4a36b5"><circle cx="248.5" cy="90" r="7.5"/><circle cx="180.5" cy="108.221" r="7.5"/><circle cx="316.5" cy="343.779" r="7.5"/><circle cx="366.279" cy="294" r="7.5"/><circle cx="130.721" cy="158" r="7.5"/><circle cx="384.5" cy="226" r="7.5"/><circle cx="366.279" cy="158" r="7.5"/><circle cx="130.721" cy="294" r="7.5"/><circle cx="316.5" cy="108.221" r="7.5"/><circle cx="180.5" cy="343.779" r="7.5"/></g></g></svg>