<svg id="Capa_1" enable-background="new 0 0 504.464 504.464" height="512" viewBox="0 0 504.464 504.464" width="512" xmlns="http://www.w3.org/2000/svg"><g><path d="m130.217 130.217c-29.75 29.75-78.155 29.749-107.905 0-29.749-29.749-29.75-78.155 0-107.904s78.155-29.749 107.904 0c29.75 29.749 29.75 78.154.001 107.904zm-97.298-97.298c-23.901 23.901-23.901 62.79 0 86.691s62.791 23.901 86.691 0 23.901-62.79 0-86.691-62.791-23.901-86.691 0z" fill="#7d8fe5"/><path d="m158.888 116.461-42.427-42.426-42.426 21.213 53.033 53.033z" fill="#95b0ed"/><path d="m137.675 137.675-53.033-53.033-10.607 31.819 42.426 42.427z" fill="#acd2f6"/><path d="m89.945 58.125-15.91 15.91v21.213h21.213l21.213-21.213-15.91-15.91c-2.928-2.929-7.677-2.929-10.606 0z" fill="#acd2f6"/><path d="m58.125 100.552 15.91 15.91 21.213-21.213-21.213-21.214-15.91 15.91c-2.929 2.929-2.929 7.678 0 10.607z" fill="#c4f3ff"/><path d="m308.464 82.464v-67.5c0-4.142-3.358-7.5-7.5-7.5h-22.5l-15 75z" fill="#acd2f6"/><path d="m278.464 82.464v-75h-22.5c-4.142 0-7.5 3.358-7.5 7.5v67.5z" fill="#c4f3ff"/><path d="m82.464 248.464h-67.5c-4.142 0-7.5 3.358-7.5 7.5v22.5l75 15z" fill="#acd2f6"/><path d="m82.464 278.464h-75v22.5c0 4.142 3.358 7.5 7.5 7.5h67.5z" fill="#c4f3ff"/><path d="m278.464 52.464v452c124.816 0 226-101.184 226-226s-101.183-226-226-226z" fill="#7d8fe5"/><path d="m474.464 278.464c0-124.816-87.752-226-196-226-124.816 0-226 101.184-226 226s101.184 226 226 226c108.248 0 196-101.183 196-226z" fill="#95b0ed"/><circle cx="278.464" cy="278.464" fill="#fff" r="166"/><path d="m374.296 182.632c-53.111-53.111-139.222-53.111-192.333 0l96.501 95.832 95.832 96.501c53.112-53.111 53.112-139.221 0-192.333z" fill="#ffe7b5"/><path d="m225.431 246.644 127.986 127.986c5.858 5.858 15.355 5.858 21.213 0s5.858-15.355 0-21.213l-127.986-127.986z" fill="#ff545a"/><circle cx="278.464" cy="278.464" fill="#ff336d" r="30"/><circle cx="278.464" cy="278.464" fill="#4a36b5" r="7.5"/><g fill="#4e4cd3"><circle cx="313.664" cy="409.83" r="7.5"/><circle cx="243.265" cy="147.098" r="7.5"/><circle cx="182.298" cy="182.298" r="7.5"/><circle cx="409.83" cy="313.664" r="7.5"/><circle cx="147.098" cy="243.265" r="7.5"/><circle cx="409.83" cy="243.265" r="7.5"/><circle cx="147.098" cy="313.664" r="7.5"/><circle cx="374.631" cy="182.298" r="7.5"/><circle cx="182.298" cy="374.631" r="7.5"/><circle cx="313.664" cy="147.098" r="7.5"/><circle cx="243.265" cy="409.83" r="7.5"/></g></g></svg>