<svg id="Capa_1" enable-background="new 0 0 497 497" height="512" viewBox="0 0 497 497" width="512" xmlns="http://www.w3.org/2000/svg"><g><path d="m181.418 0h134.164v90h-134.164z" fill="#7d8fe5"/><path d="m338.5 362v135h30c16.57 0 30-13.43 30-30v-15z" fill="#666ddc"/><path d="m98.5 452v15c0 16.57 13.43 30 30 30h210c16.57 0 30-13.43 30-30v-105z" fill="#7d8fe5"/><path d="m368.5 0h-30v422l30 30h30v-422c0-16.57-13.43-30-30-30z" fill="#4a36b5"/><path d="m338.5 0h-22.918c-11.363 0-21.751 6.42-26.833 16.583l-13.416 26.833c-5.082 10.164-15.47 16.584-26.833 16.584s-21.751-6.42-26.833-16.584l-13.416-26.833c-5.082-10.163-15.47-16.583-26.833-16.583h-52.918c-16.569 0-30 13.431-30 30v422h270v-422c0-16.569-13.431-30-30-30z" fill="#4e4cd3"/><circle cx="248.5" cy="30" fill="#4a36b5" r="7.5"/><g fill="#fff"><circle cx="248.5" cy="233.5" r="7.5"/><circle cx="248.5" cy="263.5" r="7.5"/><path d="m143.5 293.5c-12.406 0-22.5-10.093-22.5-22.5v-45c0-12.407 10.094-22.5 22.5-22.5s22.5 10.093 22.5 22.5v45c0 12.407-10.094 22.5-22.5 22.5zm0-75c-4.136 0-7.5 3.364-7.5 7.5v45c0 4.136 3.364 7.5 7.5 7.5s7.5-3.364 7.5-7.5v-45c0-4.136-3.364-7.5-7.5-7.5z"/><path d="m203.5 293.5c-12.406 0-22.5-10.093-22.5-22.5v-45c0-12.407 10.094-22.5 22.5-22.5s22.5 10.093 22.5 22.5v45c0 12.407-10.094 22.5-22.5 22.5zm0-75c-4.136 0-7.5 3.364-7.5 7.5v45c0 4.136 3.364 7.5 7.5 7.5s7.5-3.364 7.5-7.5v-45c0-4.136-3.364-7.5-7.5-7.5z"/><path d="m293.5 293.5c-12.406 0-22.5-10.093-22.5-22.5v-45c0-12.407 10.094-22.5 22.5-22.5s22.5 10.093 22.5 22.5v45c0 12.407-10.094 22.5-22.5 22.5zm0-75c-4.136 0-7.5 3.364-7.5 7.5v45c0 4.136 3.364 7.5 7.5 7.5s7.5-3.364 7.5-7.5v-45c0-4.136-3.364-7.5-7.5-7.5z"/><path d="m353.5 293.5c-12.406 0-22.5-10.093-22.5-22.5v-45c0-12.407 10.094-22.5 22.5-22.5s22.5 10.093 22.5 22.5v45c0 12.407-10.094 22.5-22.5 22.5zm0-75c-4.136 0-7.5 3.364-7.5 7.5v45c0 4.136 3.364 7.5 7.5 7.5s7.5-3.364 7.5-7.5v-45c0-4.136-3.364-7.5-7.5-7.5z"/></g></g></svg>