<svg id="Capa_1" enable-background="new 0 0 497 497" height="512" viewBox="0 0 497 497" width="512" xmlns="http://www.w3.org/2000/svg"><g><path d="m413.5 241h-137.01l118.654-68.505c3.587-2.071 4.816-6.658 2.745-10.245s-6.658-4.816-10.245-2.745l-118.654 68.505 68.505-118.654c2.071-3.587.842-8.174-2.745-10.245s-8.174-.842-10.245 2.745l-68.505 118.654v-137.01c0-4.142-3.358-7.5-7.5-7.5s-7.5 3.358-7.5 7.5v137.01l-68.505-118.654c-2.071-3.587-6.658-4.816-10.245-2.745s-4.816 6.658-2.745 10.245l68.505 118.654-118.654-68.505c-3.587-2.071-8.174-.842-10.245 2.745s-.842 8.174 2.745 10.245l118.654 68.505h-137.01c-4.142 0-7.5 3.358-7.5 7.5s3.358 7.5 7.5 7.5h137.01l-118.654 68.505c-3.587 2.071-4.816 6.658-2.745 10.245s6.658 4.816 10.245 2.745l118.654-68.505-68.505 118.654c-2.071 3.587-.842 8.174 2.745 10.245s8.174.842 10.245-2.745l68.505-118.654v137.01c0 4.142 3.358 7.5 7.5 7.5s7.5-3.358 7.5-7.5v-137.01l68.505 118.654c2.071 3.587 6.658 4.816 10.245 2.745s4.816-6.658 2.745-10.245l-68.505-118.654 118.654 68.505c3.587 2.071 8.174.842 10.245-2.745s.842-8.174-2.745-10.245l-118.654-68.505h137.01c4.142 0 7.5-3.358 7.5-7.5s-3.358-7.5-7.5-7.5z" fill="#666ddc"/><circle cx="248.5" cy="248.5" fill="#95b0ed" r="135"/><path d="m248.5 143.5v210c57.99 0 105-47.01 105-105s-47.01-105-105-105z" fill="#c4f3ff"/><path d="m323.5 248.5c0-57.99-33.579-105-75-105-57.99 0-105 47.01-105 105s47.01 105 105 105c41.421 0 75-47.01 75-105z" fill="#fff"/><g fill="#4e4cd3"><circle cx="248.5" cy="323.5" r="7.5"/><circle cx="286" cy="313.452" r="7.5"/><circle cx="211" cy="183.548" r="7.5"/><circle cx="313.452" cy="286" r="7.5"/><circle cx="183.548" cy="211" r="7.5"/><circle cx="173.5" cy="248.5" r="7.5"/><circle cx="313.452" cy="211" r="7.5"/><circle cx="183.548" cy="286" r="7.5"/><circle cx="286" cy="183.548" r="7.5"/><circle cx="211" cy="313.452" r="7.5"/></g><circle cx="248.5" cy="26.75" fill="#c4f3ff" r="26.75"/><circle cx="248.5" cy="470.25" fill="#ffd06a" r="26.75"/><circle cx="137.625" cy="56.459" fill="#14cfff" r="26.75"/><circle cx="359.375" cy="440.541" fill="#ff9733" r="26.75"/><circle cx="56.459" cy="137.625" fill="#318de9" r="26.75"/><circle cx="440.541" cy="359.375" fill="#ff545a" r="26.75"/><circle cx="26.75" cy="248.5" fill="#14d7b6" r="26.75"/><circle cx="470.25" cy="248.5" fill="#ff0787" r="26.75"/><circle cx="56.459" cy="359.375" fill="#82ffbb" r="26.75"/><circle cx="440.541" cy="137.625" fill="#666ddc" r="26.75"/><circle cx="137.625" cy="440.541" fill="#ffe7b5" r="26.75"/><circle cx="359.375" cy="56.459" fill="#95b0ed" r="26.75"/><path d="m323.5 256h-75c-4.142 0-7.5-3.358-7.5-7.5v-75c0-4.142 3.358-7.5 7.5-7.5s7.5 3.358 7.5 7.5v67.5h67.5c4.142 0 7.5 3.358 7.5 7.5s-3.358 7.5-7.5 7.5z" fill="#4a36b5"/></g></svg>