<svg id="Capa_1" enable-background="new 0 0 497 497" height="512" viewBox="0 0 497 497" width="512" xmlns="http://www.w3.org/2000/svg"><g><path d="m248.5 0v210c57.99 0 105-47.01 105-105s-47.01-105-105-105z" fill="#acd2f6"/><path d="m323.5 105c0-57.99-33.579-105-75-105-57.99 0-105 47.01-105 105s47.01 105 105 105c41.421 0 75-47.01 75-105z" fill="#c4f3ff"/><g fill="#4e4cd3"><circle cx="248.5" cy="180" r="7.5"/><circle cx="286" cy="169.952" r="7.5"/><circle cx="211" cy="40.048" r="7.5"/><circle cx="313.452" cy="142.5" r="7.5"/><circle cx="183.548" cy="67.5" r="7.5"/><circle cx="173.5" cy="105" r="7.5"/><circle cx="313.452" cy="67.5" r="7.5"/><circle cx="183.548" cy="142.5" r="7.5"/><circle cx="286" cy="40.048" r="7.5"/><circle cx="211" cy="169.952" r="7.5"/></g><path d="m377 165v142.152h60v-142.152c0-16.569-13.431-30-30-30s-30 13.431-30 30z" fill="#ff9733"/><path d="m407 90v172.152h60v-172.152c0-16.569-13.431-30-30-30s-30 13.431-30 30z" fill="#ffb44e"/><path d="m467.559 30.005c-5.704-.104-11.052 1.386-15.631 4.052v259.464l-131.659 134.973 50 68.506h21.382c4.798 0 8.362-4.443 7.321-9.127l-7.972-35.873 95.717-141.673c6.702-9.92 10.283-21.618 10.283-33.59v-216.094c0-16.459-12.985-30.339-29.441-30.638z" fill="#ffb44e"/><path d="m366.142 435.193 95.717-141.673c3.363-4.979 5.142-10.786 5.142-16.794v-216.113c0-11.204-6.022-21.219-15.072-26.556-8.928 5.197-14.929 14.869-14.929 25.943v196.934h-60l-113.5 196.933v35.633c0 4.142 3.358 7.5 7.5 7.5h99.269l-8.555-38.506c-1.787-8.045-.186-16.472 4.428-23.301z" fill="#ffd06a"/><path d="m428.213 235.721c-11.716-11.716-30.711-11.716-42.427 0l-104.712 104.713c-10.858 10.858-17.573 25.858-17.573 42.427v71.007c33.135 0 59.997-26.86 60-59.995v-11.013l104.714-104.714c11.714-11.715 11.714-30.71-.002-42.425z" fill="#ffe7b5"/><path d="m90 135c-16.569 0-30 13.431-30 30v172.152h60v-172.152c0-16.569-13.431-30-30-30z" fill="#ff9733"/><path d="m60 60c-16.569 0-30 13.431-30 30v172.152h60v-172.152c0-16.569-13.431-30-30-30z" fill="#ffb44e"/><path d="m183.5 391.814 20 105.186h22.5c4.142 0 7.5-3.358 7.5-7.5v-35.633z" fill="#ffb44e"/><path d="m120 256.934h-60v-196.934c0-16.849-13.889-30.453-30.843-29.989-16.34.448-29.157 14.266-29.157 30.613v216.114c0 11.972 3.581 23.67 10.283 33.59l95.717 141.672-7.972 35.873c-1.041 4.684 2.523 9.127 7.321 9.127h98.15v-95.186z" fill="#ffd06a"/><path d="m215.927 340.434-104.714-104.714 92.287 210.1c8.827 5.108 19.067 8.047 30 8.047v-71.007c0-16.568-6.716-31.568-17.573-42.426z" fill="#ffd06a"/><path d="m190.238 340.434-79.025-104.714c-11.716-11.716-30.711-11.716-42.427 0s-11.716 30.711 0 42.427l104.714 104.713v11.011c.002 22.202 12.073 41.573 30 51.948v-62.96c0-16.567-5.068-31.567-13.262-42.425z" fill="#ffe7b5"/><path d="m323.5 112.5h-75c-4.142 0-7.5-3.358-7.5-7.5v-75c0-4.142 3.358-7.5 7.5-7.5 4.143 0 7.5 3.358 7.5 7.5v67.5h67.5c4.143 0 7.5 3.358 7.5 7.5s-3.357 7.5-7.5 7.5z" fill="#4a36b5"/></g></svg>