<svg id="Capa_1" enable-background="new 0 0 497 497" height="512" viewBox="0 0 497 497" width="512" xmlns="http://www.w3.org/2000/svg"><g><path d="m339.136 322-212 130h-81.749c-4.685 0-8.297 4.263-7.38 8.857 4.114 20.611 22.308 36.143 44.129 36.143h302z" fill="#7d8fe5"/><path d="m339.136 322v130c0 24.853 20.147 45 45 45h30v-175z" fill="#666ddc"/><path d="m339.136 175-212-130h-81.749c-4.685 0-8.297-4.263-7.38-8.857 4.114-20.611 22.308-36.143 44.129-36.143h302z" fill="#7d8fe5"/><path d="m339.136 175v-130c0-24.853 20.147-45 45-45h30v175z" fill="#666ddc"/><path d="m414.136 0c-5.261 0-10.307.912-15 2.571v491.858c4.693 1.659 9.739 2.571 15 2.571 24.853 0 45-20.147 45-45v-407c0-24.853-20.147-45-45-45z" fill="#95b0ed"/><path d="m399.136 2.571c-17.476 6.179-30 22.837-30 42.429h-242v407h242c0 19.592 12.524 36.25 30 42.429 17.476-6.179 30-22.837 30-42.429v-407c0-19.592-12.524-36.25-30-42.429z" fill="#acd2f6"/><path d="m293.136 98.5v210c57.99 0 105-47.01 105-105s-47.01-105-105-105z" fill="#c4f3ff"/><path d="m368.136 203.5c0-57.99-33.579-105-75-105-57.99 0-105 47.01-105 105s47.01 105 105 105c41.421 0 75-47.01 75-105z" fill="#fff"/><g fill="#4e4cd3"><circle cx="293.136" cy="278.5" r="7.5"/><circle cx="330.636" cy="268.452" r="7.5"/><circle cx="255.636" cy="138.548" r="7.5"/><circle cx="358.088" cy="241" r="7.5"/><circle cx="228.184" cy="166" r="7.5"/><circle cx="218.136" cy="203.5" r="7.5"/><circle cx="358.088" cy="166" r="7.5"/><circle cx="228.184" cy="241" r="7.5"/><circle cx="330.636" cy="138.548" r="7.5"/><circle cx="255.636" cy="268.452" r="7.5"/></g><circle cx="188.136" cy="338.5" fill="#4a36b5" r="7.5"/><circle cx="188.136" cy="368.5" fill="#4a36b5" r="7.5"/><circle cx="188.136" cy="398.5" fill="#4a36b5" r="7.5"/><path d="m368.136 211h-75c-4.143 0-7.5-3.358-7.5-7.5v-75c0-4.142 3.357-7.5 7.5-7.5s7.5 3.358 7.5 7.5v67.5h67.5c4.143 0 7.5 3.358 7.5 7.5s-3.358 7.5-7.5 7.5z" fill="#4a36b5"/><path d="m398.136 346h-180c-4.143 0-7.5-3.358-7.5-7.5s3.357-7.5 7.5-7.5h180c4.143 0 7.5 3.358 7.5 7.5s-3.358 7.5-7.5 7.5z" fill="#4e4cd3"/><path d="m398.136 376h-180c-4.143 0-7.5-3.358-7.5-7.5s3.357-7.5 7.5-7.5h180c4.143 0 7.5 3.358 7.5 7.5s-3.358 7.5-7.5 7.5z" fill="#4e4cd3"/><path d="m398.136 406h-180c-4.143 0-7.5-3.358-7.5-7.5s3.357-7.5 7.5-7.5h180c4.143 0 7.5 3.358 7.5 7.5s-3.358 7.5-7.5 7.5z" fill="#4e4cd3"/></g></svg>