<svg id="Capa_1" enable-background="new 0 0 497 497" height="512" viewBox="0 0 497 497" width="512" xmlns="http://www.w3.org/2000/svg"><g><path d="m467 497h-90l-182-497h272c16.569 0 30 13.431 30 30v437c0 16.569-13.431 30-30 30z" fill="#ff9733"/><path d="m437 467-120-236.452 120-200.548h30v437z" fill="#c4f3ff"/><path d="m287 30h150v437h-150z" fill="#fff"/><path d="m377 248.5v-218.5c0-16.569-13.431-30-30-30h-30l30 497h30c16.569 0 30-13.431 30-30v-188.5c0-16.569-13.431-30-30-30z" fill="#ffb44e"/><path d="m377 467v-188.5c0-16.569-13.431-30-30-30v-218.5c0-16.569-13.431-30-30-30h-182c-16.569 0-30 13.431-30 30v437c0 16.569 13.431 30 30 30h212c16.569 0 30-13.432 30-30z" fill="#ffd06a"/><path d="m105 143.5v210c57.99 0 105-47.01 105-105s-47.01-105-105-105z" fill="#acd2f6"/><path d="m180 248.5c0-57.99-33.579-105-75-105-57.99 0-105 47.01-105 105s47.01 105 105 105c41.421 0 75-47.01 75-105z" fill="#c4f3ff"/><g fill="#4e4cd3"><circle cx="105" cy="323.5" r="7.5"/><circle cx="142.5" cy="313.452" r="7.5"/><circle cx="67.5" cy="183.548" r="7.5"/><circle cx="169.952" cy="286" r="7.5"/><circle cx="40.048" cy="211" r="7.5"/><circle cx="30" cy="248.5" r="7.5"/><circle cx="169.952" cy="211" r="7.5"/><circle cx="40.048" cy="286" r="7.5"/><circle cx="142.5" cy="183.548" r="7.5"/><circle cx="67.5" cy="313.452" r="7.5"/></g><path d="m180 256h-75c-4.142 0-7.5-3.357-7.5-7.5v-75c0-4.143 3.358-7.5 7.5-7.5s7.5 3.357 7.5 7.5v67.5h67.5c4.142 0 7.5 3.357 7.5 7.5s-3.358 7.5-7.5 7.5z" fill="#4a36b5"/></g></svg>