<svg id="Capa_1" enable-background="new 0 0 497 497" height="512" viewBox="0 0 497 497" width="512" xmlns="http://www.w3.org/2000/svg"><g><path d="m497 60-60 46 30-106h22.5c4.142 0 7.5 3.358 7.5 7.5z" fill="#c9139d"/><path d="m467 60-60 16 30-76h30z" fill="#ff0787"/><path d="m437 60-60 31 30-91h30z" fill="#ff336d"/><path d="m407 76h-287l-15-16v-52.5c0-4.142 3.358-7.5 7.5-7.5h294.5z" fill="#ff545a"/><path d="m489.5 497h-22.5l-60-218.5 60-218.5h30v429.5c0 4.142-3.358 7.5-7.5 7.5z" fill="#95b0ed"/><path d="m467 497h-30l-60-218.5 60-218.5h30z" fill="#7d8fe5"/><path d="m437 497h-324.5c-4.142 0-7.5-3.358-7.5-7.5v-97.5h332z" fill="#95b0ed"/><path d="m317 262-212 130h-81.749c-4.685 0-8.297 4.263-7.38 8.857 4.114 20.611 22.308 36.143 44.129 36.143h302z" fill="#acd2f6"/><path d="m317 262v130c0 24.853 20.147 45 45 45h30v-175z" fill="#95b0ed"/><path d="m407 60-30 374.429c4.693 1.659 9.739 2.571 15 2.571 24.853 0 45-20.147 45-45v-332z" fill="#acd2f6"/><path d="m105 60v332h242c0 19.592 12.524 36.25 30 42.429 17.476-6.179 30-22.837 30-42.429v-30l-45-136 45-136v-30z" fill="#c4f3ff"/><path d="m407 158-68-68h-68l-34 15-34-15h-68v204l68 68h68l34-15 34 15h68v-68l-15-34 15-34z" fill="#fff"/><g fill="#ffe7b5"><path d="m271 294h68v68h-68z"/><path d="m135 294h68v68h-68z"/><path d="m203 90h68v68h-68z"/><path d="m339 90h68v68h-68z"/><path d="m203 226h68v68h-68z"/><path d="m339 226h68v68h-68z"/><path d="m135 158h68v68h-68z"/><path d="m271 158h68v68h-68z"/></g><path d="m241 226.333-32.23-16.115c-7.754-50.339-51.26-88.885-103.77-88.885v210c52.51 0 96.016-38.545 103.77-88.885z" fill="#95b0ed"/><path d="m180 226.333c0-57.99-33.579-105-75-105-57.99 0-105 47.01-105 105s47.01 105 105 105c41.421 0 75-47.01 75-105z" fill="#acd2f6"/><circle cx="105" cy="271.333" fill="#4a36b5" r="7.5"/><path d="m105 248.833c-4.142 0-7.5-3.357-7.5-7.5v-60c0-4.143 3.358-7.5 7.5-7.5s7.5 3.357 7.5 7.5v60c0 4.143-3.358 7.5-7.5 7.5z" fill="#4a36b5"/></g></svg>