<svg id="Capa_1" enable-background="new 0 0 497 497" height="512" viewBox="0 0 497 497" width="512" xmlns="http://www.w3.org/2000/svg"><g><path d="m165.667 0v331.333c91.495 0 165.667-74.171 165.667-165.667-.001-91.495-74.172-165.666-165.667-165.666z" fill="#acd2f6"/><path d="m301.334 165.667c0-91.496-60.74-165.667-135.667-165.667-91.495 0-165.667 74.171-165.667 165.667 0 43.929 17.104 83.858 45.008 113.508-5.722 15.406-16.048 28.573-29.311 37.823-5.635 3.93-3.461 12.656 3.346 13.59 3.582.491 7.24.746 10.957.746 20.988 0 40.083-8.086 54.354-21.307 24.022 13.56 51.761 21.307 81.313 21.307 74.927-.001 135.667-74.172 135.667-165.667z" fill="#c4f3ff"/><path d="m451.992 444.841c27.904-29.65 45.008-69.579 45.008-113.508 0-91.495-74.171-165.667-165.667-165.667v331.334c29.552 0 57.291-7.747 81.313-21.307 14.271 13.221 33.367 21.307 54.354 21.307 3.717 0 7.375-.254 10.957-.746 6.807-.934 8.981-9.66 3.346-13.59-13.263-9.25-23.589-22.417-29.311-37.823z" fill="#7d8fe5"/><path d="m331.333 165.667c-91.495 0-165.666 74.171-165.666 165.667s74.171 165.666 165.666 165.666c74.927 0 135.667-74.171 135.667-165.667s-60.74-165.666-135.667-165.666z" fill="#95b0ed"/><circle cx="331.333" cy="331.333" fill="#666ddc" r="135"/><path d="m331.333 226.333v210c57.99 0 105-47.01 105-105s-47.01-105-105-105z" fill="#c4f3ff"/><path d="m406.333 331.333c0-57.99-33.579-105-75-105-57.99 0-105 47.01-105 105s47.01 105 105 105c41.422 0 75-47.01 75-105z" fill="#fff"/><g fill="#4e4cd3"><circle cx="331.333" cy="406.333" r="7.5"/><circle cx="368.833" cy="396.285" r="7.5"/><circle cx="293.833" cy="266.381" r="7.5"/><circle cx="396.285" cy="368.833" r="7.5"/><circle cx="266.382" cy="293.833" r="7.5"/><circle cx="256.333" cy="331.333" r="7.5"/><circle cx="396.285" cy="293.833" r="7.5"/><circle cx="266.382" cy="368.833" r="7.5"/><circle cx="368.833" cy="266.381" r="7.5"/><circle cx="293.833" cy="396.285" r="7.5"/></g><path d="m406.333 338.833h-75c-4.143 0-7.5-3.357-7.5-7.5v-75c0-4.143 3.357-7.5 7.5-7.5s7.5 3.357 7.5 7.5v67.5h67.5c4.143 0 7.5 3.357 7.5 7.5s-3.357 7.5-7.5 7.5z" fill="#4a36b5"/></g></svg>